<?xml version="1.0" encoding="utf-8"?>
<svg width="16px" height="16px" viewBox="0 0 16 16" version="1.1" xmlns:xlink="http://www.w3.org/1999/xlink" xmlns="http://www.w3.org/2000/svg">
  <g id="icon_godot">
    <path d="M12 0C14.2094 0 16 1.79056 16 4L16 12C16 14.2094 14.2094 16 12 16L4 16C1.79056 16 0 14.2094 0 12L0 4C0 1.79056 1.79056 0 4 0L12 0Z" id="Background" fill="#3E89D7" stroke="none" />
    <path d="M6.60416 8.14773C6.60416 7.85985 6.50315 7.6149 6.30113 7.41288C6.09659 7.21086 5.85038 7.10985 5.5625 7.10985C5.27462 7.10985 5.02841 7.21086 4.82386 7.41288C4.62184 7.6149 4.52083 7.85985 4.52083 8.14773C4.52083 8.43308 4.62184 8.67677 4.82386 8.87879C5.02841 9.08081 5.27462 9.18182 5.5625 9.18182C5.85038 9.18182 6.09659 9.08081 6.30113 8.87879C6.50315 8.67677 6.60416 8.43308 6.60416 8.14773M12.6913 9.8144L12.6761 9.8144L10.9451 9.98106C10.8996 9.98611 10.8617 10.0051 10.8314 10.0379C10.7986 10.0682 10.7822 10.1073 10.7822 10.1553L10.7254 10.9129L9.2178 11.0189L9.11553 10.3182C9.10796 10.2727 9.08649 10.2348 9.05114 10.2045C9.01578 10.1742 8.97538 10.1591 8.92992 10.1591L7.10038 10.1591C7.05492 10.1591 7.01578 10.1742 6.98295 10.2045C6.9476 10.2348 6.92487 10.2727 6.91477 10.3182L6.81629 11.0189L5.30492 10.9129L5.25568 10.1553C5.25063 10.1073 5.23169 10.0682 5.19886 10.0379C5.16856 10.0051 5.13068 9.98611 5.08523 9.98106L3.35417 9.8144L3.33902 9.8144L3.33902 7.00758C3.14962 6.7702 2.93245 6.46212 2.6875 6.08333C2.92992 5.67929 3.24811 5.26389 3.64205 4.83712C3.96023 4.99621 4.27715 5.17929 4.5928 5.38636L4.82765 5.17424L5.07386 4.98485C5.14205 4.93434 5.22917 4.87626 5.33523 4.81061L5.60038 4.64773C5.5524 4.28409 5.52336 3.89647 5.51326 3.48485C5.9173 3.28283 6.39078 3.12121 6.93371 3C7.11553 3.30556 7.29104 3.6452 7.46023 4.01894L8.01326 3.97727L8.02083 3.97727L8.57386 4.01894C8.738 3.65783 8.91225 3.31818 9.09659 3C9.63952 3.12121 10.1143 3.28283 10.5208 3.48485C10.5107 3.90404 10.4817 4.29167 10.4337 4.64773L10.6989 4.81061L10.9564 4.98485L11.2027 5.17424C11.2961 5.25 11.3744 5.32071 11.4375 5.38636C11.7532 5.17929 12.0701 4.99621 12.3883 4.83712C12.7847 5.25884 13.1029 5.67424 13.3428 6.08333C13.1256 6.42929 12.9085 6.73737 12.6913 7.00758L12.6913 9.8144M8.01705 9.2803C8.11048 9.2803 8.18876 9.25 8.2519 9.18939C8.31755 9.13131 8.35038 9.05935 8.35038 8.97349L8.35038 8.01894C8.35038 7.93561 8.31755 7.8649 8.2519 7.80682C8.18876 7.74621 8.11048 7.71591 8.01705 7.71591C7.92109 7.71591 7.84154 7.74621 7.77841 7.80682C7.71276 7.8649 7.67993 7.93561 7.67993 8.01894L7.67993 8.97349C7.67993 9.05935 7.71276 9.13131 7.77841 9.18939C7.84154 9.25 7.92109 9.2803 8.01705 9.2803M9.42613 8.14773C9.42613 8.43308 9.52714 8.67677 9.72916 8.87879C9.93371 9.08081 10.1799 9.18182 10.4678 9.18182C10.7557 9.18182 11.0019 9.08081 11.2064 8.87879C11.4085 8.67677 11.5095 8.43308 11.5095 8.14773C11.5095 7.85985 11.4085 7.6149 11.2064 7.41288C11.0019 7.21086 10.7557 7.10985 10.4678 7.10985C10.1799 7.10985 9.93371 7.21086 9.72916 7.41288C9.52714 7.6149 9.42613 7.85985 9.42613 8.14773M3.33901 10.1856L4.88826 10.3333L4.94507 11.1023C4.9476 11.1477 4.96654 11.1869 5.00189 11.2197C5.0322 11.25 5.07134 11.2677 5.11932 11.2727L6.96023 11.4015C7.00821 11.404 7.05114 11.3902 7.08901 11.3598C7.12689 11.3295 7.14962 11.2904 7.1572 11.2424L7.26326 10.5303L8.77083 10.5303L8.87311 11.2424C8.88068 11.2879 8.90215 11.3258 8.9375 11.3561C8.97033 11.3864 9.01073 11.4015 9.05871 11.4015L9.07386 11.4015L10.9148 11.2727C10.9602 11.2677 10.9994 11.25 11.0322 11.2197C11.065 11.1869 11.0827 11.1477 11.0852 11.1023L11.142 10.3333L12.6913 10.1856L12.6913 10.572C12.6913 11.3548 12.2355 11.9621 11.3239 12.3939C10.4905 12.7929 9.38952 12.9949 8.02083 13L8.01326 13C6.64709 12.9949 5.54482 12.7929 4.70644 12.3939C3.79482 11.9621 3.33901 11.3548 3.33901 10.572L3.33901 10.1856M6.35417 8.20833C6.35417 8.40025 6.28725 8.56313 6.15341 8.69697C6.01705 8.83081 5.85291 8.89773 5.66099 8.89773C5.4716 8.89773 5.30872 8.83081 5.17235 8.69697C5.03852 8.56313 4.9716 8.40025 4.9716 8.20833C4.9716 8.01894 5.03852 7.85732 5.17235 7.72349C5.30872 7.5846 5.4716 7.51515 5.66099 7.51515C5.85291 7.51515 6.01705 7.5846 6.15341 7.72349C6.28725 7.85732 6.35417 8.01894 6.35417 8.20833M9.67993 8.20833C9.67993 8.01894 9.74685 7.85732 9.88069 7.72349C10.0145 7.5846 10.1774 7.51515 10.3693 7.51515C10.5612 7.51515 10.7241 7.5846 10.858 7.72349C10.9918 7.85732 11.0587 8.01894 11.0587 8.20833C11.0587 8.40025 10.9918 8.56313 10.858 8.69697C10.7241 8.83081 10.5612 8.89773 10.3693 8.89773C10.1774 8.89773 10.0145 8.83081 9.88069 8.69697C9.74685 8.56313 9.67993 8.40025 9.67993 8.20833" id="Shape" fill="#FFFFFF" fill-rule="evenodd" stroke="none" />
  </g>
</svg>