<svg width="1024px" height="414px" viewBox="0 0 1024 414" version="1.1" xmlns:xlink="http://www.w3.org/1999/xlink" xmlns="http://www.w3.org/2000/svg"><defs><path d="M896 0C966.702 0 1024 57.2979 1024 128L1024 286C1024 356.702 966.702 414 896 414L128 414C57.2979 414 0 356.702 0 286L0 128C0 57.2979 57.2979 0 128 0L896 0Z" id="path_1"/><clipPath id="clip_1"><use xlink:href="#path_1"/></clipPath></defs><g id="logo"><path d="M467.333 210.727C467.333 201.515 464.101 193.677 457.636 187.212C451.091 180.747 443.212 177.515 434 177.515C424.788 177.515 416.909 180.747 410.364 187.212C403.899 193.677 400.667 201.515 400.667 210.727C400.667 219.859 403.899 227.657 410.364 234.121C416.909 240.586 424.788 243.818 434 243.818C443.212 243.818 451.091 240.586 457.636 234.121C464.101 227.657 467.333 219.859 467.333 210.727M662.121 264.061L661.636 264.061L606.242 269.394C604.788 269.556 603.576 270.162 602.606 271.212C601.556 272.182 601.03 273.434 601.03 274.97L599.212 299.212L550.97 302.606L547.697 280.182C547.455 278.727 546.768 277.515 545.636 276.546C544.505 275.576 543.212 275.091 541.758 275.091L483.212 275.091C481.758 275.091 480.505 275.576 479.455 276.546C478.323 277.515 477.596 278.727 477.273 280.182L474.121 302.606L425.758 299.212L424.182 274.97C424.02 273.434 423.414 272.182 422.364 271.212C421.394 270.162 420.182 269.556 418.727 269.394L363.333 264.061L362.848 264.061L362.848 174.242C356.788 166.646 349.838 156.788 342 144.667C349.758 131.737 359.939 118.444 372.545 104.788C382.727 109.879 392.869 115.737 402.97 122.364L410.485 115.576L418.364 109.515C420.545 107.899 423.333 106.04 426.727 103.939L435.212 98.7273C433.677 87.0909 432.747 74.6869 432.424 61.5152C445.354 55.0505 460.505 49.8788 477.879 46C483.697 55.7778 489.313 66.6465 494.727 78.6061L512.424 77.2727L512.667 77.2727L530.364 78.6061C535.616 67.0505 541.192 56.1818 547.091 46C564.465 49.8788 579.657 55.0505 592.667 61.5152C592.343 74.9293 591.414 87.3334 589.879 98.7273L598.364 103.939L606.606 109.515L614.485 115.576C617.475 118 619.98 120.263 622 122.364C632.101 115.737 642.242 109.879 652.424 104.788C665.111 118.283 675.293 131.576 682.97 144.667C676.02 155.737 669.071 165.596 662.121 174.242L662.121 264.061M512.546 246.97C515.535 246.97 518.04 246 520.061 244.061C522.162 242.202 523.212 239.899 523.212 237.152L523.212 206.606C523.212 203.939 522.162 201.677 520.061 199.818C518.04 197.879 515.535 196.909 512.546 196.909C509.475 196.909 506.929 197.879 504.909 199.818C502.808 201.677 501.758 203.939 501.758 206.606L501.758 237.152C501.758 239.899 502.808 242.202 504.909 244.061C506.929 246 509.475 246.97 512.546 246.97M557.636 210.727C557.636 219.859 560.869 227.657 567.333 234.121C573.879 240.586 581.758 243.818 590.97 243.818C600.182 243.818 608.061 240.586 614.606 234.121C621.071 227.657 624.303 219.859 624.303 210.727C624.303 201.515 621.071 193.677 614.606 187.212C608.061 180.747 600.182 177.515 590.97 177.515C581.758 177.515 573.879 180.747 567.333 187.212C560.869 193.677 557.636 201.515 557.636 210.727M362.848 275.939L412.424 280.667L414.242 305.273C414.323 306.727 414.929 307.98 416.061 309.03C417.03 310 418.283 310.566 419.818 310.727L478.727 314.849C480.263 314.929 481.636 314.485 482.848 313.515C484.061 312.546 484.788 311.293 485.03 309.758L488.424 286.97L536.667 286.97L539.939 309.758C540.182 311.212 540.869 312.424 542 313.394C543.05 314.364 544.343 314.849 545.879 314.849L546.364 314.849L605.273 310.727C606.727 310.566 607.98 310 609.03 309.03C610.081 307.98 610.646 306.727 610.727 305.273L612.545 280.667L662.121 275.939L662.121 288.303C662.121 313.354 647.535 332.788 618.364 346.606C591.697 359.374 556.465 365.838 512.667 366L512.424 366C468.707 365.838 433.434 359.374 406.606 346.606C377.434 332.788 362.848 313.354 362.848 288.303L362.848 275.939M459.333 212.667C459.333 218.808 457.192 224.02 452.909 228.303C448.546 232.586 443.293 234.727 437.152 234.727C431.091 234.727 425.879 232.586 421.515 228.303C417.232 224.02 415.091 218.808 415.091 212.667C415.091 206.606 417.232 201.434 421.515 197.152C425.879 192.707 431.091 190.485 437.152 190.485C443.293 190.485 448.546 192.707 452.909 197.152C457.192 201.434 459.333 206.606 459.333 212.667M565.758 212.667C565.758 206.606 567.899 201.434 572.182 197.152C576.465 192.707 581.677 190.485 587.818 190.485C593.96 190.485 599.172 192.707 603.455 197.152C607.738 201.434 609.879 206.606 609.879 212.667C609.879 218.808 607.738 224.02 603.455 228.303C599.172 232.586 593.96 234.727 587.818 234.727C581.677 234.727 576.465 232.586 572.182 228.303C567.899 224.02 565.758 218.808 565.758 212.667" id="Fill" fill="#FFFFFF" fill-rule="evenodd" stroke="none"/><g id="Rectangle"><g clip-path="url(#clip_1)"><use xlink:href="#path_1" fill="none" stroke="#FFFFFF" stroke-width="48"/></g></g></g></svg>