<svg width="1024px" height="1024px" viewBox="0 0 1024 1024" version="1.1" xmlns:xlink="http://www.w3.org/1999/xlink" xmlns="http://www.w3.org/2000/svg"><g id="icon"><path d="M768 0C909.404 0 1024 114.596 1024 256L1024 768C1024 909.404 909.404 1024 768 1024L256 1024C114.596 1024 0 909.404 0 768L0 256C0 114.596 114.596 0 256 0L768 0Z" id="Background" fill="#3E89D7" stroke="none"/><path d="M422.666 521.455C422.666 503.03 416.202 487.354 403.273 474.424C390.182 461.495 374.424 455.03 356 455.03C337.576 455.03 321.818 461.495 308.727 474.424C295.798 487.354 289.333 503.03 289.333 521.455C289.333 539.717 295.798 555.313 308.727 568.243C321.818 581.172 337.576 587.636 356 587.636C374.424 587.636 390.182 581.172 403.273 568.243C416.202 555.313 422.666 539.717 422.666 521.455M812.242 628.121L811.273 628.121L700.485 638.788C697.576 639.111 695.152 640.323 693.212 642.424C691.111 644.364 690.061 646.869 690.061 649.94L686.424 698.424L589.939 705.212L583.394 660.364C582.909 657.455 581.535 655.03 579.273 653.091C577.01 651.152 574.424 650.182 571.515 650.182L454.424 650.182C451.515 650.182 449.01 651.152 446.909 653.091C444.647 655.03 443.192 657.455 442.545 660.364L436.242 705.212L339.515 698.424L336.364 649.94C336.04 646.869 334.828 644.364 332.727 642.424C330.788 640.323 328.364 639.111 325.455 638.788L214.667 628.121L213.697 628.121L213.697 448.485C201.576 433.293 187.677 413.576 172 389.333C187.515 363.475 207.879 336.889 233.091 309.576C253.455 319.758 273.737 331.475 293.939 344.727L308.97 331.152L324.727 319.03C329.091 315.798 334.667 312.081 341.455 307.879L358.424 297.455C355.354 274.182 353.495 249.374 352.849 223.03C378.707 210.101 409.01 199.758 443.758 192C455.394 211.556 466.626 233.293 477.455 257.212L512.849 254.545L513.333 254.545L548.727 257.212C559.232 234.101 570.384 212.364 582.182 192C616.929 199.758 647.313 210.101 673.333 223.03C672.687 249.859 670.828 274.667 667.758 297.455L684.727 307.879L701.212 319.03L716.97 331.152C722.95 336 727.96 340.525 732 344.727C752.202 331.475 772.485 319.758 792.849 309.576C818.222 336.566 838.586 363.152 853.939 389.333C840.041 411.475 826.141 431.192 812.242 448.485L812.242 628.121M513.091 593.939C519.071 593.939 524.081 592 528.121 588.121C532.323 584.404 534.424 579.798 534.424 574.303L534.424 513.212C534.424 507.879 532.323 503.354 528.121 499.636C524.081 495.758 519.071 493.818 513.091 493.818C506.95 493.818 501.859 495.758 497.818 499.636C493.616 503.354 491.515 507.879 491.515 513.212L491.515 574.303C491.515 579.798 493.616 584.404 497.818 588.121C501.859 592 506.95 593.939 513.091 593.939M603.273 521.455C603.273 539.717 609.737 555.313 622.667 568.243C635.757 581.172 651.515 587.636 669.939 587.636C688.364 587.636 704.121 581.172 717.212 568.243C730.141 555.313 736.606 539.717 736.606 521.455C736.606 503.03 730.141 487.354 717.212 474.424C704.121 461.495 688.364 455.03 669.939 455.03C651.515 455.03 635.757 461.495 622.667 474.424C609.737 487.354 603.273 503.03 603.273 521.455M213.697 651.879L312.848 661.333L316.485 710.545C316.646 713.455 317.858 715.96 320.121 718.061C322.06 720 324.566 721.131 327.636 721.455L445.454 729.697C448.525 729.859 451.273 728.97 453.697 727.03C456.121 725.091 457.576 722.586 458.061 719.515L464.848 673.939L561.333 673.939L567.879 719.515C568.364 722.424 569.737 724.848 572 726.788C574.101 728.727 576.687 729.697 579.758 729.697L580.727 729.697L698.545 721.455C701.454 721.131 703.96 720 706.061 718.061C708.162 715.96 709.293 713.455 709.454 710.545L713.091 661.333L812.242 651.879L812.242 676.606C812.242 726.707 783.071 765.576 724.727 793.212C671.394 818.747 600.929 831.677 513.333 832L512.848 832C425.414 831.677 354.869 818.747 301.212 793.212C242.869 765.576 213.697 726.707 213.697 676.606L213.697 651.879M406.667 525.333C406.667 537.616 402.384 548.04 393.819 556.606C385.091 565.172 374.586 569.455 362.303 569.455C350.182 569.455 339.758 565.172 331.031 556.606C322.465 548.04 318.182 537.616 318.182 525.333C318.182 513.212 322.465 502.869 331.031 494.303C339.758 485.414 350.182 480.97 362.303 480.97C374.586 480.97 385.091 485.414 393.819 494.303C402.384 502.869 406.667 513.212 406.667 525.333M619.516 525.333C619.516 513.212 623.798 502.869 632.364 494.303C640.93 485.414 651.354 480.97 663.637 480.97C675.92 480.97 686.344 485.414 694.91 494.303C703.475 502.869 707.758 513.212 707.758 525.333C707.758 537.616 703.475 548.04 694.91 556.606C686.344 565.172 675.92 569.455 663.637 569.455C651.354 569.455 640.93 565.172 632.364 556.606C623.798 548.04 619.516 537.616 619.516 525.333" id="Shape" fill="#FFFFFF" fill-rule="evenodd" stroke="none"/></g></svg>