<svg width="1024px" height="1024px" viewBox="0 0 1024 1024" version="1.1" xmlns:xlink="http://www.w3.org/1999/xlink" xmlns="http://www.w3.org/2000/svg"><defs><path d="M768 0C909.404 0 1024 114.596 1024 256L1024 768C1024 909.404 909.404 1024 768 1024L256 1024C114.596 1024 0 909.404 0 768L0 256C0 114.596 114.596 0 256 0L768 0Z" id="path_1"/><clipPath id="clip_1"><use xlink:href="#path_1"/></clipPath></defs><g id="icon_outlined"><g id="Background"><g clip-path="url(#clip_1)"><use xlink:href="#path_1" fill="none" stroke="#FFFFFF" stroke-width="80"/></g></g><path d="M815.063 657.09C816.706 716.379 783.859 762.118 716.522 794.308C665.281 819.108 597.78 831.672 514.02 832L513.281 832C429.521 831.672 362.021 819.108 310.78 794.308C243.115 762.118 210.103 716.379 211.746 657.09L211.746 468.63L181.444 423.794C177.503 417.881 175.45 411.394 175.286 404.332C175.286 397.106 177.01 390.454 180.459 384.378C195.24 359.414 214.866 333.875 239.337 307.762C245.086 301.521 252.066 297.661 260.277 296.183C268.489 294.705 276.372 295.855 283.927 299.632C294.931 305.216 306.017 311.293 317.185 317.862L323.344 312.689L324.822 311.95L337.139 302.835C335.99 288.382 335.251 273.437 334.922 257.999C334.758 250.608 336.564 243.792 340.342 237.551C344.119 231.31 349.211 226.548 355.616 223.263C380.908 210.617 410.552 200.516 444.549 192.962C452.268 191.155 459.905 191.894 467.46 195.179C475.015 198.299 480.845 203.391 484.951 210.453C491.849 221.949 498.5 234.267 504.905 247.405L513.035 247.159L514.02 247.159L522.396 247.405C528.637 234.595 535.207 222.278 542.105 210.453C546.21 203.555 552.041 198.463 559.596 195.179C566.986 191.894 574.787 191.155 582.999 192.962C616.667 200.516 646.23 210.617 671.686 223.263C678.091 226.548 683.265 231.31 687.206 237.551C690.819 243.792 692.626 250.69 692.626 258.245L690.162 303.081L701.987 311.457L703.219 312.196L710.117 317.862C721.121 311.293 732.207 305.216 743.375 299.632C750.765 295.855 758.566 294.705 766.778 296.183C774.99 297.661 781.97 301.521 787.718 307.762C812.025 333.711 831.651 359.332 846.596 384.624C850.209 390.536 851.934 397.106 851.77 404.332C851.77 411.066 849.881 417.471 846.104 423.548C835.921 439.971 825.656 455.081 815.31 468.876L815.31 601.66L815.063 605.848L815.063 657.09M777.125 614.963L777.125 456.559C789.442 441.121 801.76 423.712 814.078 404.332C800.446 381.339 782.462 357.771 760.127 333.629C742.061 342.662 724.159 353.091 706.422 364.916C702.973 360.974 698.538 356.95 693.119 352.844L679.077 342.251L664.542 332.397L649.761 323.036C652.388 303.163 654.031 281.32 654.688 257.506C631.695 246.174 604.924 237.059 574.377 230.161C563.866 248.062 554.094 267.278 545.061 287.807L513.528 285.344L513.035 285.344L481.995 287.807C472.469 266.621 462.615 247.405 452.432 230.161C421.885 237.059 395.114 246.174 372.121 257.506C372.778 280.827 374.503 302.671 377.295 323.036L362.021 332.397L347.732 342.251L333.69 352.844C328.271 356.95 323.754 360.974 320.141 364.916C302.568 353.091 284.748 342.662 266.682 333.629C244.346 357.771 226.363 381.339 212.731 404.332C226.527 425.683 238.762 443.091 249.438 456.559L249.438 614.963L250.423 614.963L348.225 624.078C350.689 624.407 352.824 625.474 354.63 627.281C356.273 629.088 357.258 631.305 357.587 633.933L360.543 676.798L445.781 682.71L451.447 643.048C451.94 640.584 453.171 638.531 455.142 636.889C457.113 635.247 459.33 634.425 461.794 634.425L565.015 634.425C567.479 634.425 569.696 635.247 571.667 636.889C573.638 638.531 574.869 640.584 575.362 643.048L581.275 682.71L666.266 676.798L669.469 633.933C669.469 631.305 670.372 629.088 672.179 627.281C673.985 625.474 676.12 624.407 678.584 624.078L776.386 614.963L777.125 614.963M433.956 520.61C433.956 536.705 428.207 550.583 416.711 562.244C405.215 573.576 391.337 579.242 375.077 579.242C358.818 579.242 344.94 573.576 333.444 562.244C322.112 550.583 316.446 536.705 316.446 520.61C316.446 504.515 322.112 490.72 333.444 479.223C344.94 467.891 358.818 462.225 375.077 462.225C391.337 462.225 405.215 467.891 416.711 479.223C428.207 490.72 433.956 504.515 433.956 520.61M513.281 584.416C508.19 584.416 503.756 582.773 499.978 579.489C496.365 576.204 494.559 572.18 494.559 567.417L494.559 513.466C494.559 508.703 496.365 504.68 499.978 501.395C503.756 497.946 508.19 496.222 513.281 496.222C518.537 496.222 522.971 497.946 526.584 501.395C530.362 504.68 532.25 508.703 532.25 513.466L532.25 567.417C532.25 572.18 530.362 576.204 526.584 579.489C522.971 582.773 518.537 584.416 513.281 584.416M592.853 520.61C592.853 504.515 598.601 490.72 610.098 479.223C621.594 467.891 635.472 462.225 651.732 462.225C667.991 462.225 681.869 467.891 693.365 479.223C704.697 490.72 710.363 504.515 710.363 520.61C710.363 536.705 704.697 550.583 693.365 562.244C681.869 573.576 667.991 579.242 651.732 579.242C635.472 579.242 621.594 573.576 610.098 562.244C598.601 550.583 592.853 536.705 592.853 520.61M777.125 635.657L689.67 644.033L686.467 687.391C686.467 689.855 685.564 691.99 683.757 693.796C681.622 695.767 679.323 696.835 676.859 696.999L572.899 704.389L572.16 704.389C569.368 704.389 567.068 703.568 565.262 701.926C563.291 700.284 562.141 698.066 561.813 695.274L555.9 655.119L471.155 655.119L464.996 695.274C464.668 698.066 463.354 700.284 461.055 701.926C459.084 703.732 456.702 704.554 453.91 704.389L349.95 696.999C347.322 696.835 345.105 695.767 343.298 693.796C341.327 691.99 340.342 689.855 340.342 687.391L336.893 644.033L249.438 635.657L249.438 657.582C249.438 701.762 275.223 736.087 326.792 760.558C373.928 783.058 436.009 794.39 513.035 794.554L513.528 794.554C590.718 794.39 652.881 783.058 700.017 760.558C751.422 736.087 777.125 701.762 777.125 657.582L777.125 635.657" id="Outline" fill="#FFFFFF" fill-rule="evenodd" stroke="none"/></g></svg>