<svg width="1024px" height="414px" viewBox="0 0 1024 414" version="1.1" xmlns:xlink="http://www.w3.org/1999/xlink" xmlns="http://www.w3.org/2000/svg"><defs><path d="M896 0C966.702 0 1024 57.2979 1024 128L1024 286C1024 356.702 966.702 414 896 414L128 414C57.2979 414 0 356.702 0 286L0 128C0 57.2979 57.2979 0 128 0L896 0Z" id="path_1"/><clipPath id="clip_1"><use xlink:href="#path_1"/></clipPath></defs><g id="logo_outlined"><path d="M664.679 280.545C665.5 310.189 649.077 333.059 615.409 349.154C589.788 361.554 556.038 367.836 514.158 368L513.788 368C471.908 367.836 438.158 361.554 412.537 349.154C378.705 333.059 362.199 310.189 363.02 280.545L363.02 186.315L347.87 163.897C345.899 160.941 344.872 157.697 344.79 154.166C344.79 150.553 345.653 147.227 347.377 144.189C354.768 131.707 364.581 118.938 376.816 105.881C379.69 102.76 383.18 100.831 387.286 100.092C391.392 99.3526 395.334 99.9274 399.111 101.816C404.613 104.608 410.156 107.646 415.74 110.931L418.819 108.344L419.558 107.975L425.717 103.417C425.142 96.1911 424.773 88.7183 424.609 80.9993C424.526 77.304 425.43 73.8961 427.318 70.7757C429.207 67.6552 431.753 65.2738 434.955 63.6315C447.601 57.3084 462.424 52.2582 479.422 48.4808C483.281 47.5775 487.1 47.947 490.877 49.5894C494.655 51.1496 497.57 53.6952 499.623 57.2263C503.072 62.9745 506.398 69.1333 509.6 75.7027L513.665 75.5796L514.158 75.5796L518.346 75.7027C521.466 69.2976 524.751 63.1388 528.2 57.2263C530.253 53.7774 533.168 51.2317 536.945 49.5894C540.641 47.947 544.541 47.5775 548.647 48.4808C565.481 52.2582 580.262 57.3084 592.99 63.6315C596.193 65.2738 598.78 67.6552 600.751 70.7757C602.557 73.8961 603.46 77.3451 603.46 81.1225L602.229 103.541L608.141 107.729L608.757 108.098L612.206 110.931C617.708 107.646 623.251 104.608 628.835 101.816C632.53 99.9274 636.431 99.3526 640.536 100.092C644.642 100.831 648.132 102.76 651.006 105.881C663.16 118.855 672.973 131.666 680.446 144.312C682.252 147.268 683.115 150.553 683.032 154.166C683.032 157.533 682.088 160.735 680.199 163.774C675.108 171.986 669.976 179.54 664.802 186.438L664.802 252.83L664.679 254.924L664.679 280.545M645.71 259.482L645.71 180.279C651.869 172.56 658.028 163.856 664.186 154.166C657.371 142.669 648.379 130.886 637.211 118.814C628.178 123.331 619.227 128.545 610.358 134.458C608.634 132.487 606.417 130.475 603.707 128.422L596.686 123.126L589.418 118.198L582.028 113.518C583.342 103.582 584.163 92.6599 584.491 80.7529C572.995 75.0868 559.61 70.5293 544.336 67.0803C539.08 76.0311 534.194 85.6389 529.678 95.9036L513.911 94.6718L513.665 94.6718L498.145 95.9036C493.382 85.3104 488.455 75.7027 483.364 67.0803C468.09 70.5293 454.705 75.0868 443.208 80.7529C443.537 92.4136 444.399 103.335 445.795 113.518L438.158 118.198L431.014 123.126L423.993 128.422C421.283 130.475 419.025 132.487 417.218 134.458C408.431 128.545 399.522 123.331 390.489 118.814C379.321 130.886 370.329 142.669 363.513 154.166C370.411 164.841 376.529 173.546 381.866 180.279L381.866 259.482L382.359 259.482L431.26 264.039C432.492 264.203 433.559 264.737 434.463 265.64C435.284 266.544 435.776 267.652 435.941 268.966L437.419 290.399L480.038 293.355L482.871 273.524C483.117 272.292 483.733 271.266 484.719 270.444C485.704 269.623 486.813 269.213 488.044 269.213L539.655 269.213C540.887 269.213 541.995 269.623 542.981 270.444C543.966 271.266 544.582 272.292 544.828 273.524L547.785 293.355L590.281 290.399L591.882 268.966C591.882 267.652 592.334 266.544 593.237 265.64C594.14 264.737 595.208 264.203 596.439 264.039L645.34 259.482L645.71 259.482M474.125 212.305C474.125 220.353 471.251 227.292 465.503 233.122C459.755 238.788 452.816 241.621 444.686 241.621C436.557 241.621 429.618 238.788 423.869 233.122C418.203 227.292 415.37 220.353 415.37 212.305C415.37 204.258 418.203 197.36 423.869 191.611C429.618 185.945 436.557 183.112 444.686 183.112C452.816 183.112 459.755 185.945 465.503 191.611C471.251 197.36 474.125 204.258 474.125 212.305M513.788 244.208C511.243 244.208 509.025 243.387 507.137 241.744C505.33 240.102 504.427 238.09 504.427 235.709L504.427 208.733C504.427 206.352 505.33 204.34 507.137 202.698C509.025 200.973 511.243 200.111 513.788 200.111C516.416 200.111 518.633 200.973 520.44 202.698C522.328 204.34 523.273 206.352 523.273 208.733L523.273 235.709C523.273 238.09 522.328 240.102 520.44 241.744C518.633 243.387 516.416 244.208 513.788 244.208M553.574 212.305C553.574 204.258 556.448 197.36 562.196 191.611C567.945 185.945 574.884 183.112 583.013 183.112C591.143 183.112 598.082 185.945 603.83 191.611C609.496 197.36 612.329 204.258 612.329 212.305C612.329 220.353 609.496 227.292 603.83 233.122C598.082 238.788 591.143 241.621 583.013 241.621C574.884 241.621 567.945 238.788 562.196 233.122C556.448 227.292 553.574 220.353 553.574 212.305M645.71 269.829L601.982 274.017L600.381 295.696C600.381 296.927 599.929 297.995 599.026 298.898C597.959 299.884 596.809 300.417 595.577 300.499L543.597 304.195L543.227 304.195C541.831 304.195 540.682 303.784 539.778 302.963C538.793 302.142 538.218 301.033 538.054 299.637L535.098 279.56L492.725 279.56L489.646 299.637C489.481 301.033 488.824 302.142 487.675 302.963C486.689 303.866 485.499 304.277 484.103 304.195L432.122 300.499C430.808 300.417 429.7 299.884 428.797 298.898C427.811 297.995 427.318 296.927 427.318 295.696L425.594 274.017L381.866 269.829L381.866 280.791C381.866 302.881 394.759 320.043 420.544 332.279C444.111 343.529 475.152 349.195 513.665 349.277L513.911 349.277C552.507 349.195 583.588 343.529 607.156 332.279C632.859 320.043 645.71 302.881 645.71 280.791L645.71 269.829" id="Outline" fill="#FFFFFF" fill-rule="evenodd" stroke="none"/><g id="Rectangle"><g clip-path="url(#clip_1)"><use xlink:href="#path_1" fill="none" stroke="#FFFFFF" stroke-width="48"/></g></g></g></svg>